<svg width="45" height="53" viewBox="0 0 45 53" fill="none" xmlns="http://www.w3.org/2000/svg">
<mask id="mask0" mask-type="alpha" maskUnits="userSpaceOnUse" x="0" y="0" width="45" height="52">
<path fill-rule="evenodd" clip-rule="evenodd" d="M44.1173 25.954V0.533752H0.250488V25.954V51.3743H44.1173V25.954Z" fill="white"/>
</mask>
<g mask="url(#mask0)">
<path fill-rule="evenodd" clip-rule="evenodd" d="M44.1173 22.4315C44.1173 41.2924 22.1839 51.3743 22.1839 51.3743C22.1839 51.3743 0.250488 40.6623 0.250488 22.4315C0.250488 10.3377 10.0705 0.533752 22.1839 0.533752C34.2974 0.533752 44.1173 10.3377 44.1173 22.4315Z" fill="#F0C738"/>
</g>
<path fill-rule="evenodd" clip-rule="evenodd" d="M22.2127 27.6529C22.5298 27.6529 22.7892 27.9119 22.7892 28.2284V30.5592L23.2791 30.5016C26.9682 30.0124 29.8504 27.1061 30.3404 23.4518L30.3979 22.9627H28.0634C27.7464 22.9627 27.487 22.7037 27.487 22.3871C27.487 22.0706 27.7464 21.8117 28.0634 21.8117H30.3979L30.3404 21.3225C29.8504 17.6394 26.9394 14.7619 23.2791 14.2728L22.7892 14.1865V16.5172C22.7892 16.8337 22.5298 17.0926 22.2127 17.0926C21.8956 17.0926 21.6362 16.8337 21.6362 16.5172V14.1865L21.1463 14.244C17.4572 14.7331 14.575 17.6394 14.085 21.2937L13.9987 21.8117H16.3332C16.6501 21.8117 16.9096 22.0706 16.9096 22.3871C16.9096 22.7037 16.6501 22.9627 16.3332 22.9627H13.9987L14.0562 23.4518C14.5462 27.1349 17.4572 30.0124 21.1175 30.5016L21.6074 30.5592V28.2284C21.6362 27.9119 21.8956 27.6529 22.2127 27.6529ZM22.2127 34.7026C21.8956 34.7026 21.6362 34.4437 21.6362 34.1272V31.7677L21.2616 31.7389C16.8807 31.2785 13.3357 27.768 12.9034 23.3942L12.8169 22.9627H10.4824C10.1654 22.9627 9.90601 22.7037 9.90601 22.3871C9.90601 22.0706 10.1654 21.8117 10.4824 21.8117H12.8457L12.8745 21.4376C13.3357 17.0638 16.8519 13.5246 21.2328 13.0931L21.6074 13.0643V10.676C21.6074 10.3595 21.8668 10.1005 22.1839 10.1005C22.5009 10.1005 22.7604 10.3595 22.7604 10.676V13.0355L23.135 13.0643C27.5159 13.5246 31.0609 17.0351 31.4932 21.4088L31.522 21.7829H33.8854C34.2023 21.7829 34.4618 22.0418 34.4618 22.3584C34.4618 22.6749 34.2023 22.9339 33.8854 22.9339H31.522L31.4932 23.3079C31.032 27.6817 27.5159 31.2209 23.135 31.6526L22.7892 31.7677V34.1272C22.7892 34.4437 22.5298 34.7026 22.2127 34.7026Z" fill="white"/>
</svg>
